<?xml version="1.0" encoding="UTF-8" standalone="no"?>
<svg
   xmlns:dc="http://purl.org/dc/elements/1.1/"
   xmlns:cc="http://creativecommons.org/ns#"
   xmlns:rdf="http://www.w3.org/1999/02/22-rdf-syntax-ns#"
   xmlns:svg="http://www.w3.org/2000/svg"
   xmlns="http://www.w3.org/2000/svg"
   xmlns:sodipodi="http://sodipodi.sourceforge.net/DTD/sodipodi-0.dtd"
   xmlns:inkscape="http://www.inkscape.org/namespaces/inkscape"
   version="1.0"
   width="400"
   height="400"
   viewBox="0 0 3999.9999 3999.9999"
   preserveAspectRatio="xMidYMid meet"
   id="svg3796"
   sodipodi:docname="doz-icon.svg"
   inkscape:version="0.92.3 (2405546, 2018-03-11)">
  <metadata
     id="metadata3802">
    <rdf:RDF>
      <cc:Work
         rdf:about="">
        <dc:format>image/svg+xml</dc:format>
        <dc:type
           rdf:resource="http://purl.org/dc/dcmitype/StillImage" />
        <dc:title></dc:title>
      </cc:Work>
    </rdf:RDF>
  </metadata>
  <defs
     id="defs3800" />
  <sodipodi:namedview
     pagecolor="#ffffff"
     bordercolor="#666666"
     borderopacity="1"
     objecttolerance="10"
     gridtolerance="10"
     guidetolerance="10"
     inkscape:pageopacity="0"
     inkscape:pageshadow="2"
     inkscape:window-width="1920"
     inkscape:window-height="1017"
     id="namedview3798"
     showgrid="false"
     inkscape:zoom="1.4324223"
     inkscape:cx="224.91821"
     inkscape:cy="172.80546"
     inkscape:window-x="2552"
     inkscape:window-y="-8"
     inkscape:window-maximized="1"
     inkscape:current-layer="svg3796"
     units="px"
     width="400mm" />
  <g
     id="layer101"
     transform="matrix(0.62015786,0,0,0.85593221,-31.016911,5.6780618)"
     style="fill:#1f0c70;stroke:none">
    <path
       d="M 0,2330 V 0 H 3275 6550 V 2330 4660 H 3275 0 Z"
       id="path3786"
       inkscape:connector-curvature="0" />
  </g>
  <g
     id="layer102"
     style="opacity:1;fill:#ffffff;stroke:#fffeff;stroke-width:342.30576772;stroke-linecap:butt;stroke-miterlimit:4;stroke-dasharray:none;stroke-dashoffset:0;stroke-opacity:0.1746725;paint-order:stroke fill markers"
     transform="matrix(1.7528188,0,0,1.7528188,-1828.0497,-1949.1022)">
    <path
       d="m 1900,3093 c -87,-7 -186,-24 -257,-45 l -73,-21 v -41 c 0,-75 30,-288 65,-461 32,-159 71,-302 128,-470 23,-67 25,-70 68,-83 127,-38 246,-54 410,-55 l 166,-2 53,-254 54,-253 66,6 c 84,9 193,34 213,49 14,11 3,73 -103,567 -65,305 -128,593 -140,640 -31,124 -100,333 -114,348 -29,30 -364,88 -468,80 -13,-1 -43,-3 -68,-5 z m 241,-273 c 29,-6 56,-15 60,-22 15,-23 61,-203 103,-395 42,-197 42,-198 22,-207 -33,-13 -258,-12 -282,1 -16,9 -29,40 -52,130 -52,197 -101,467 -88,481 19,19 161,26 237,12 z"
       id="path3789"
       inkscape:connector-curvature="0"
       style="stroke:#fffeff;stroke-width:342.30576772;stroke-linecap:butt;stroke-miterlimit:4;stroke-dasharray:none;stroke-dashoffset:0;stroke-opacity:0.1746725;paint-order:stroke fill markers" />
  </g>
</svg>
